<svg width="200" height="47" viewBox="0 0 200 47" fill="none" xmlns="http://www.w3.org/2000/svg">
<rect x="0.5" y="1" width="199" height="45" fill="black"/>
<path d="M10.268 26.816H14.172V28H8.81199V16.848H10.268V26.816ZM17.0022 16.848V23.904C17.0022 24.896 17.2422 25.632 17.7222 26.112C18.2129 26.592 18.8902 26.832 19.7542 26.832C20.6076 26.832 21.2742 26.592 21.7542 26.112C22.2449 25.632 22.4902 24.896 22.4902 23.904V16.848H23.9462V23.888C23.9462 24.816 23.7596 25.6 23.3862 26.24C23.0129 26.8693 22.5062 27.3387 21.8662 27.648C21.2369 27.9573 20.5276 28.112 19.7382 28.112C18.9489 28.112 18.2342 27.9573 17.5942 27.648C16.9649 27.3387 16.4636 26.8693 16.0902 26.24C15.7276 25.6 15.5462 24.816 15.5462 23.888V16.848H17.0022ZM30.7951 22.432L34.2191 28H32.5711L29.8991 23.648L27.3551 28H25.7391L29.1471 22.432L25.7231 16.848H27.3551L30.0431 21.216L32.6031 16.848H34.2351L30.7951 22.432ZM37.4566 16.848V23.904C37.4566 24.896 37.6966 25.632 38.1766 26.112C38.6673 26.592 39.3446 26.832 40.2086 26.832C41.062 26.832 41.7286 26.592 42.2086 26.112C42.6993 25.632 42.9446 24.896 42.9446 23.904V16.848H44.4006V23.888C44.4006 24.816 44.214 25.6 43.8406 26.24C43.4673 26.8693 42.9606 27.3387 42.3206 27.648C41.6913 27.9573 40.982 28.112 40.1926 28.112C39.4033 28.112 38.6886 27.9573 38.0486 27.648C37.4193 27.3387 36.918 26.8693 36.5446 26.24C36.182 25.6 36.0006 24.816 36.0006 23.888V16.848H37.4566ZM52.5615 28L49.9055 23.44H48.1455V28H46.6895V16.848H50.2895C51.1322 16.848 51.8415 16.992 52.4175 17.28C53.0042 17.568 53.4415 17.9573 53.7295 18.448C54.0175 18.9387 54.1615 19.4987 54.1615 20.128C54.1615 20.896 53.9375 21.5733 53.4895 22.16C53.0522 22.7467 52.3908 23.136 51.5055 23.328L54.3055 28H52.5615ZM48.1455 22.272H50.2895C51.0788 22.272 51.6708 22.08 52.0655 21.696C52.4602 21.3013 52.6575 20.7787 52.6575 20.128C52.6575 19.4667 52.4602 18.9547 52.0655 18.592C51.6815 18.2293 51.0895 18.048 50.2895 18.048H48.1455V22.272ZM64.0919 16.848L60.4599 23.792V28H59.0039V23.792L55.3559 16.848H56.9719L59.7239 22.496L62.4759 16.848H64.0919ZM76.2052 25.52H71.3412L70.4452 28H68.9092L72.9412 16.912H74.6212L78.6372 28H77.1012L76.2052 25.52ZM75.7892 24.336L73.7732 18.704L71.7572 24.336H75.7892ZM87.1185 16.848V18.032H84.0785V28H82.6225V18.032H79.5665V16.848H87.1185ZM94.3524 16.848V28H92.8964V16.848H94.3524ZM103.558 16.848V18.032H100.518V28H99.0619V18.032H96.0059V16.848H103.558ZM108.746 28.112C108.01 28.112 107.349 27.984 106.762 27.728C106.186 27.4613 105.733 27.0987 105.402 26.64C105.071 26.1707 104.901 25.632 104.89 25.024H106.442C106.495 25.5467 106.709 25.9893 107.082 26.352C107.466 26.704 108.021 26.88 108.746 26.88C109.439 26.88 109.983 26.7093 110.378 26.368C110.783 26.016 110.986 25.568 110.986 25.024C110.986 24.5973 110.869 24.2507 110.634 23.984C110.399 23.7173 110.106 23.5147 109.754 23.376C109.402 23.2373 108.927 23.088 108.33 22.928C107.594 22.736 107.002 22.544 106.554 22.352C106.117 22.16 105.738 21.8613 105.418 21.456C105.109 21.04 104.954 20.4853 104.954 19.792C104.954 19.184 105.109 18.6453 105.418 18.176C105.727 17.7067 106.159 17.344 106.714 17.088C107.279 16.832 107.925 16.704 108.65 16.704C109.695 16.704 110.549 16.9653 111.21 17.488C111.882 18.0107 112.261 18.704 112.346 19.568H110.746C110.693 19.1413 110.469 18.768 110.074 18.448C109.679 18.1173 109.157 17.952 108.506 17.952C107.898 17.952 107.402 18.112 107.018 18.432C106.634 18.7413 106.442 19.1787 106.442 19.744C106.442 20.1493 106.554 20.48 106.778 20.736C107.013 20.992 107.295 21.1893 107.626 21.328C107.967 21.456 108.442 21.6053 109.05 21.776C109.786 21.9787 110.378 22.1813 110.826 22.384C111.274 22.576 111.658 22.88 111.978 23.296C112.298 23.7013 112.458 24.256 112.458 24.96C112.458 25.504 112.314 26.016 112.026 26.496C111.738 26.976 111.311 27.3653 110.746 27.664C110.181 27.9627 109.514 28.112 108.746 28.112ZM129.016 16.848V18.032H124.168V21.792H128.104V22.976H124.168V28H122.712V16.848H129.016ZM132.09 16.848V28H130.634V16.848H132.09ZM143.2 28H141.744L135.888 19.12V28H134.432V16.832H135.888L141.744 25.696V16.832H143.2V28ZM146.998 18.032V21.76H151.062V22.96H146.998V26.8H151.542V28H145.542V16.832H151.542V18.032H146.998ZM157.141 28.112C156.405 28.112 155.744 27.984 155.157 27.728C154.581 27.4613 154.128 27.0987 153.797 26.64C153.466 26.1707 153.296 25.632 153.285 25.024H154.837C154.89 25.5467 155.104 25.9893 155.477 26.352C155.861 26.704 156.416 26.88 157.141 26.88C157.834 26.88 158.378 26.7093 158.773 26.368C159.178 26.016 159.381 25.568 159.381 25.024C159.381 24.5973 159.264 24.2507 159.029 23.984C158.794 23.7173 158.501 23.5147 158.149 23.376C157.797 23.2373 157.322 23.088 156.725 22.928C155.989 22.736 155.397 22.544 154.949 22.352C154.512 22.16 154.133 21.8613 153.813 21.456C153.504 21.04 153.349 20.4853 153.349 19.792C153.349 19.184 153.504 18.6453 153.813 18.176C154.122 17.7067 154.554 17.344 155.109 17.088C155.674 16.832 156.32 16.704 157.045 16.704C158.09 16.704 158.944 16.9653 159.605 17.488C160.277 18.0107 160.656 18.704 160.741 19.568H159.141C159.088 19.1413 158.864 18.768 158.469 18.448C158.074 18.1173 157.552 17.952 156.901 17.952C156.293 17.952 155.797 18.112 155.413 18.432C155.029 18.7413 154.837 19.1787 154.837 19.744C154.837 20.1493 154.949 20.48 155.173 20.736C155.408 20.992 155.69 21.1893 156.021 21.328C156.362 21.456 156.837 21.6053 157.445 21.776C158.181 21.9787 158.773 22.1813 159.221 22.384C159.669 22.576 160.053 22.88 160.373 23.296C160.693 23.7013 160.853 24.256 160.853 24.96C160.853 25.504 160.709 26.016 160.421 26.496C160.133 26.976 159.706 27.3653 159.141 27.664C158.576 27.9627 157.909 28.112 157.141 28.112ZM169.72 16.848V18.032H166.68V28H165.224V18.032H162.168V16.848H169.72Z" fill="#F2F2F2"/>
<g clip-path="url(#clip0_1_114)">
<path d="M166.358 29.29L170.095 29.477L170.533 29.5L166.358 29.71L165.484 29.665L168.147 29.531H155.684V29.469H168.147L165.484 29.335L166.358 29.29Z" fill="black"/>
</g>
<rect x="0.5" y="1" width="199" height="45" stroke="#339999"/>
<defs>
<clipPath id="clip0_1_114">
<rect width="19.7073" height="1" fill="white" transform="matrix(1 0 0 -1 155.67 30)"/>
</clipPath>
</defs>
</svg>
