<svg width="23" height="21" viewBox="0 0 23 21" fill="none" xmlns="http://www.w3.org/2000/svg">
<path d="M21.6284 0.786413C21.3943 0.318232 20.77 0.279217 20.4969 0.747398C19.2875 2.85421 17.1417 4.14171 14.6837 4.14171H11.5625C7.42691 4.14171 4.07161 7.497 4.07161 11.6326C4.07161 11.9057 4.07161 12.1788 4.11063 12.4519C6.60759 10.6572 10.197 9.13563 15.3079 9.13563C15.6201 9.13563 15.9322 9.44775 15.9322 9.75987C15.9322 10.111 15.6201 10.3841 15.3079 10.3841C5.47615 10.3841 1.34056 16.4314 0.404198 18.6553C0.131093 19.3186 0.443213 20.0208 1.06745 20.2939C1.73071 20.567 2.43298 20.2549 2.70609 19.6307C2.78412 19.4746 3.5254 17.758 5.51517 16.0803C6.80266 17.797 9.18258 19.4356 12.3428 19.0845C18.4682 18.6553 22.7988 13.1542 22.7988 6.44359C22.7988 4.49284 22.3697 2.46406 21.6284 0.786413Z" fill="#474B50"/>
</svg>
