<svg width="26" height="22" viewBox="0 0 41 41" fill="none" xmlns="http://www.w3.org/2000/svg">
<path d="M38.8774 37.1657L36.7409 39.0139C35.9177 39.725 34.6685 39.6321 33.9638 38.8057L8.63672 8.23506L11.8943 5.78467L39.0408 34.4142C39.2141 34.6039 39.3477 34.8265 39.4335 35.0687C39.5193 35.3109 39.5557 35.5679 39.5405 35.8245C39.5252 36.081 39.4587 36.3319 39.3448 36.5622C39.2309 36.7926 39.072 36.9978 38.8774 37.1657Z" fill="#697D9D"/>
<path d="M10.9531 11.0281L16.9814 18.3056C17.9199 16.8898 18.4004 15.1922 18.7848 13.0493L12.9647 6.91211C12.4924 7.29834 12.0904 7.76322 11.7763 8.28625C11.2798 9.11586 11.0204 10.0608 10.9531 11.0281Z" fill="#6AB2B7"/>
<path d="M22.8995 1.51504C17.3677 1.45098 15.3209 1.94106 12.2395 4.60286C11.317 5.40043 10.3913 6.19801 9.46882 6.99559C8.46304 7.86364 7.12733 8.61958 7.33874 10.1218C7.41562 10.6696 7.58538 11.2237 7.48288 11.7683C7.38358 12.2808 6.7878 12.537 6.36179 12.2455C5.9646 11.97 5.52257 11.6337 5.03249 11.5761C4.57124 11.5248 4.08757 11.669 3.74163 11.9765L1.59874 13.8823C1.59874 13.8823 1.29124 15.1283 3.69038 17.8446C6.08952 20.5608 7.63343 20.3654 7.63343 20.3654L9.64819 18.5941C9.98773 18.2962 10.1607 17.8606 10.1543 17.409C10.1447 16.8836 9.83718 16.4768 9.6546 16.0028C9.61937 15.9131 9.41757 15.5928 9.76991 15.3045C10.0838 15.0322 10.7276 15.1251 11.0928 15.2244C11.4612 15.3237 11.8103 15.4807 12.1819 15.5768C12.9026 15.7658 13.2389 15.4294 13.7418 14.997C14.1838 14.6126 16.8552 12.3064 17.7457 11.5376C19.5234 10.0001 16.8136 7.3095 16.8136 7.3095C15.5323 5.86809 23.2743 2.23575 23.2743 2.23575C23.838 2.03395 23.6651 1.52465 22.8995 1.51504Z" fill="#82AEC0"/>
<path d="M12.1787 15.5769C12.3292 15.6153 12.4605 15.6281 12.5823 15.6249V15.5641C12.5502 15.2181 12.3612 14.9074 12.1723 14.6191C10.9735 12.796 9.49346 11.1744 7.78718 9.81445C7.64624 9.70234 7.4989 9.59023 7.34835 9.49414C7.31632 9.68953 7.30991 9.89773 7.34195 10.1252C7.41882 10.6729 7.58859 11.227 7.48609 11.7716C7.37718 12.3321 6.79101 12.4891 6.33937 12.2777C7.50851 13.0336 8.51429 14.0426 9.2414 15.2277C9.3407 15.3879 9.43999 15.5577 9.55531 15.7082C9.57132 15.5513 9.64179 15.4039 9.77312 15.3046C10.087 15.0323 10.7309 15.1252 11.096 15.2245C11.458 15.3238 11.8103 15.4808 12.1787 15.5769ZM5.58343 16.2527C7.26187 18.008 8.20679 19.8306 7.69429 20.3239C7.17859 20.8172 5.40085 19.7922 3.71921 18.0369C2.03757 16.2816 1.08304 14.3789 1.59554 13.8856C2.10804 13.3923 3.90499 14.4974 5.58343 16.2527Z" fill="#2F7889"/>
<path d="M12.1242 7.17496C13.4599 6.6048 14.6514 5.38761 16.205 4.0455C16.6502 3.66113 17.2139 3.29917 17.7905 3.02691C18.0051 2.92441 17.9282 2.59769 17.688 2.6041C16.8872 2.61691 16.1729 2.86035 15.4714 3.16464C14.4881 3.59066 13.6232 4.24089 12.784 4.90714C12.2107 5.36519 10.8622 6.5023 10.0133 7.2198C9.85637 7.35433 9.97809 7.56253 10.1863 7.56574C10.7885 7.56894 11.1248 7.60097 12.1242 7.17496ZM3.70637 12.7516C3.14262 13.3858 3.86012 13.5588 5.12856 14.6062C6.02223 15.3461 6.97036 14.6607 6.97997 13.9688C6.98637 13.3474 6.83262 13.0143 5.92614 12.4441C5.02286 11.8739 4.21887 12.175 3.70637 12.7516Z" fill="#B9E4EA"/>
</svg>
