<svg width="16" height="21" viewBox="0 0 16 21" fill="none" xmlns="http://www.w3.org/2000/svg">
<path d="M14.5549 0.677512H2.07009C1.36782 0.677512 0.821612 1.26274 0.821612 1.92599V10.6654H15.8034V1.92599C15.8034 1.26274 15.2182 0.677512 14.5549 0.677512ZM0.821612 13.1623C0.821612 14.5669 1.91403 15.6593 3.31857 15.6593H5.81554V18.1562C5.81554 19.5608 6.90796 20.6532 8.3125 20.6532C9.67803 20.6532 10.8095 19.5608 10.8095 18.1562V15.6593H13.3064C14.672 15.6593 15.8034 14.5669 15.8034 13.1623V11.9138H0.821612V13.1623ZM8.3125 17.2199C8.8197 17.2199 9.24886 17.6491 9.24886 18.1562C9.24886 18.7025 8.8197 19.0926 8.3125 19.0926C7.76629 19.0926 7.37614 18.7025 7.37614 18.1562C7.37614 17.6491 7.76629 17.2199 8.3125 17.2199Z" fill="#474B50"/>
</svg>
