<svg width="62" height="32" viewBox="0 0 62 32" fill="none" xmlns="http://www.w3.org/2000/svg">
<path d="M10.72 15.75C10.72 14.72 10.945 13.8 11.395 12.99C11.845 12.17 12.46 11.535 13.24 11.085C14.02 10.625 14.89 10.395 15.85 10.395C17.02 10.395 18.02 10.675 18.85 11.235C19.69 11.785 20.3 12.565 20.68 13.575H19.45C19.15 12.865 18.69 12.31 18.07 11.91C17.46 11.51 16.72 11.31 15.85 11.31C15.08 11.31 14.385 11.49 13.765 11.85C13.155 12.21 12.675 12.73 12.325 13.41C11.975 14.08 11.8 14.86 11.8 15.75C11.8 16.64 11.975 17.42 12.325 18.09C12.675 18.76 13.155 19.275 13.765 19.635C14.385 19.995 15.08 20.175 15.85 20.175C16.72 20.175 17.46 19.98 18.07 19.59C18.69 19.19 19.15 18.64 19.45 17.94H20.68C20.3 18.94 19.69 19.715 18.85 20.265C18.01 20.815 17.01 21.09 15.85 21.09C14.89 21.09 14.02 20.865 13.24 20.415C12.46 19.955 11.845 19.32 11.395 18.51C10.945 17.7 10.72 16.78 10.72 15.75ZM23.8223 9.9V21H22.7723V9.9H23.8223ZM29.785 21.12C29.015 21.12 28.32 20.95 27.7 20.61C27.09 20.26 26.605 19.77 26.245 19.14C25.895 18.5 25.72 17.755 25.72 16.905C25.72 16.055 25.9 15.315 26.26 14.685C26.62 14.045 27.11 13.555 27.73 13.215C28.35 12.865 29.045 12.69 29.815 12.69C30.585 12.69 31.28 12.865 31.9 13.215C32.53 13.555 33.02 14.045 33.37 14.685C33.73 15.315 33.91 16.055 33.91 16.905C33.91 17.745 33.73 18.485 33.37 19.125C33.01 19.765 32.515 20.26 31.885 20.61C31.255 20.95 30.555 21.12 29.785 21.12ZM29.785 20.205C30.325 20.205 30.825 20.085 31.285 19.845C31.745 19.595 32.115 19.225 32.395 18.735C32.685 18.235 32.83 17.625 32.83 16.905C32.83 16.185 32.69 15.58 32.41 15.09C32.13 14.59 31.76 14.22 31.3 13.98C30.84 13.73 30.34 13.605 29.8 13.605C29.26 13.605 28.76 13.73 28.3 13.98C27.84 14.22 27.47 14.59 27.19 15.09C26.92 15.58 26.785 16.185 26.785 16.905C26.785 17.625 26.92 18.235 27.19 18.735C27.47 19.225 27.835 19.595 28.285 19.845C28.745 20.085 29.245 20.205 29.785 20.205ZM38.644 21.12C37.704 21.12 36.934 20.905 36.334 20.475C35.744 20.035 35.414 19.44 35.344 18.69H36.424C36.474 19.15 36.689 19.525 37.069 19.815C37.459 20.095 37.979 20.235 38.629 20.235C39.199 20.235 39.644 20.1 39.964 19.83C40.294 19.56 40.459 19.225 40.459 18.825C40.459 18.545 40.369 18.315 40.189 18.135C40.009 17.955 39.779 17.815 39.499 17.715C39.229 17.605 38.859 17.49 38.389 17.37C37.779 17.21 37.284 17.05 36.904 16.89C36.524 16.73 36.199 16.495 35.929 16.185C35.669 15.865 35.539 15.44 35.539 14.91C35.539 14.51 35.659 14.14 35.899 13.8C36.139 13.46 36.479 13.19 36.919 12.99C37.359 12.79 37.859 12.69 38.419 12.69C39.299 12.69 40.009 12.915 40.549 13.365C41.089 13.805 41.379 14.415 41.419 15.195H40.369C40.339 14.715 40.149 14.33 39.799 14.04C39.459 13.74 38.989 13.59 38.389 13.59C37.859 13.59 37.429 13.715 37.099 13.965C36.769 14.215 36.604 14.525 36.604 14.895C36.604 15.215 36.699 15.48 36.889 15.69C37.089 15.89 37.334 16.05 37.624 16.17C37.914 16.28 38.304 16.405 38.794 16.545C39.384 16.705 39.854 16.86 40.204 17.01C40.554 17.16 40.854 17.38 41.104 17.67C41.354 17.96 41.484 18.345 41.494 18.825C41.494 19.265 41.374 19.66 41.134 20.01C40.894 20.35 40.559 20.62 40.129 20.82C39.699 21.02 39.204 21.12 38.644 21.12ZM50.8805 16.485C50.8805 16.845 50.8705 17.12 50.8505 17.31H44.0555C44.0855 17.93 44.2355 18.46 44.5055 18.9C44.7755 19.34 45.1305 19.675 45.5705 19.905C46.0105 20.125 46.4905 20.235 47.0105 20.235C47.6905 20.235 48.2605 20.07 48.7205 19.74C49.1905 19.41 49.5005 18.965 49.6505 18.405H50.7605C50.5605 19.205 50.1305 19.86 49.4705 20.37C48.8205 20.87 48.0005 21.12 47.0105 21.12C46.2405 21.12 45.5505 20.95 44.9405 20.61C44.3305 20.26 43.8505 19.77 43.5005 19.14C43.1605 18.5 42.9905 17.755 42.9905 16.905C42.9905 16.055 43.1605 15.31 43.5005 14.67C43.8405 14.03 44.3155 13.54 44.9255 13.2C45.5355 12.86 46.2305 12.69 47.0105 12.69C47.7905 12.69 48.4705 12.86 49.0505 13.2C49.6405 13.54 50.0905 14 50.4005 14.58C50.7205 15.15 50.8805 15.785 50.8805 16.485ZM49.8155 16.455C49.8255 15.845 49.7005 15.325 49.4405 14.895C49.1905 14.465 48.8455 14.14 48.4055 13.92C47.9655 13.7 47.4855 13.59 46.9655 13.59C46.1855 13.59 45.5205 13.84 44.9705 14.34C44.4205 14.84 44.1155 15.545 44.0555 16.455H49.8155Z" fill="black"/>
</svg>
