<svg width="20" height="21" viewBox="0 0 20 21" fill="none" xmlns="http://www.w3.org/2000/svg">
<path d="M18.5057 3.67353C19.2079 3.98565 19.6761 4.6489 19.6761 5.39019C19.6761 14.0515 14.3701 18.8504 11.0148 20.2549C10.5466 20.45 10.0394 20.45 9.57121 20.2549C5.3966 18.4992 0.94889 13.1542 0.94889 5.39019C0.94889 4.6489 1.37806 3.98565 2.08033 3.67353L9.57121 0.552322C9.8053 0.474292 10.0394 0.435277 10.3125 0.435277C10.5466 0.435277 10.7807 0.474292 11.0148 0.552322L18.5057 3.67353ZM10.3125 17.836C13.9409 16.0023 17.0231 11.7106 17.1401 5.81935L10.3125 2.97125V17.836Z" fill="#474B50"/>
</svg>
