<svg width="26" height="16" viewBox="0 0 26 16" fill="none" xmlns="http://www.w3.org/2000/svg">
<path d="M17.7602 0.174475H14.4049C14.0928 0.174475 13.8197 0.29152 13.5856 0.52561L9.72312 4.03696C9.09888 4.6612 9.09888 5.63658 9.64509 6.22181C10.1523 6.76802 11.1667 6.92408 11.8299 6.33885C11.8299 6.33885 11.8299 6.33885 11.8689 6.33885L14.9511 3.49075C15.2242 3.25666 15.6144 3.25666 15.8485 3.52977C16.0826 3.76386 16.0826 4.15401 15.8095 4.3881L14.7951 5.32446L20.4913 9.92823C20.5693 10.0453 20.6863 10.1233 20.7644 10.2404V2.67144L18.6576 0.564625C18.4235 0.330535 18.1113 0.174475 17.7602 0.174475ZM22.0519 2.71045V11.4498C22.0519 12.1131 22.5981 12.6983 23.3004 12.6983H25.7973V2.71045H22.0519ZM23.9246 11.4498C23.5735 11.4498 23.3004 11.1377 23.3004 10.8256C23.3004 10.4744 23.5735 10.2013 23.9246 10.2013C24.2367 10.2013 24.5488 10.4744 24.5488 10.8256C24.5488 11.1377 24.2367 11.4498 23.9246 11.4498ZM0.827687 12.6593H3.32465C3.98791 12.6593 4.57313 12.1131 4.57313 11.4108V2.71045H0.827687V12.6593ZM2.70041 10.2013C3.01253 10.2013 3.32465 10.4744 3.32465 10.8256C3.32465 11.1377 3.01253 11.4498 2.70041 11.4498C2.34927 11.4498 2.07617 11.1377 2.07617 10.8256C2.07617 10.4744 2.34927 10.2013 2.70041 10.2013ZM19.672 10.9036L13.8587 6.18279L12.6883 7.2362C11.5178 8.32862 9.76213 8.21157 8.70873 7.08014C7.69433 5.9487 7.77236 4.15401 8.9038 3.1006L12.103 0.174475H8.82577C8.47464 0.174475 8.16251 0.330535 7.92842 0.564625L5.82161 2.67144V11.4108H6.52388L10.0352 14.61C11.1277 15.5074 12.6883 15.3123 13.5466 14.2589H13.5856L14.2489 14.8441C14.8731 15.3513 15.8095 15.2733 16.3167 14.6491L17.5261 13.1275L17.7602 13.3225C18.2674 13.7517 19.0477 13.6737 19.5159 13.1275L19.867 12.6593C20.2962 12.1131 20.2182 11.3328 19.672 10.9036Z" fill="#474B50"/>
</svg>
